{"title":"Punjab 1984 (2014) - 1CD - DVDSCR-Rip - Punjabi - x264 - MP3 - M","uid":10460068,"size":738208772,"categoryP":"video","categoryS":"movies","magnet":"?xt=urn:btih:6fc00c10e2f9cefd7d720c907d1286eff91f208e&amp;dn=Punjab+1984+%282014%29+-+1CD+-+DVDSCR-Rip+-+Punjabi+-+x264+-+MP3+-+M&amp;tr=udp%3A%2F%2Ftracker.openbittorrent.com%3A80&amp;tr=udp%3A%2F%2Fopen.demonii.com%3A1337&amp;tr=udp%3A%2F%2Ftracker.coppersurfer.tk%3A6969&amp;tr=udp%3A%2F%2Fexodus.desync.com%3A6969","seeders":27,"leechers":5,"uploader":"asc11","files":4,"time":1404124982,"description":"Punjab 1984 (2014) - 1CD - DVDSCR-Rip - Punjabi - x264 - MP3 - Mafiaking - [D3Si MaNiaCs]\n\nScreens:\n &lt;a href=&quot;\nhttp://imgfun.biz/x/img-53b122a04016f.html&quot; rel=&quot;nofollow&quot; target=&quot;_NEW&quot;&gt;\nhttp://imgfun.biz/x/img-53b122a04016f.html&lt;/a&gt;\n &lt;a href=&quot;\nhttp://imgfun.biz/x/img-53b122f37255a.html&quot; rel=&quot;nofollow&quot; target=&quot;_NEW&quot;&gt;\nhttp://imgfun.biz/x/img-53b122f37255a.html&lt;/a&gt;\n &lt;a href=&quot;\nhttp://imgfun.biz/x/img-53b12306af26a.html&quot; rel=&quot;nofollow&quot; target=&quot;_NEW&quot;&gt;\nhttp://imgfun.biz/x/img-53b12306af26a.html&lt;/a&gt;\n\nINFO:\n\nGeneral\nUnique ID : 231191416033210570662780458052190171667 (0xADEDD8DBB358FBC1BA00D0F129BB7213)\nComplete name : Punjab 1984 (2014) - 1CD - DVDSCR-Rip - Punjabi - x264 - MP3 - Mafiaking - [D3Si MaNiaCs].mkv\nFormat : Matroska\nFormat version : Version 4 / Version 2\nFile size : 699 MiB\nDuration : 2h 21mn\nOverall bit rate : 690 Kbps\nMovie name : Punjab 1984 (2014) - 1CD - DVDSCR-Rip - Punjabi - x264 - MP3 - Mafiaking - [D3Si MaNiaCs]\nEncoded date : UTC 2014-06-29 17:11:48\nWriting application : mkvmerge v6.5.0 ('Isn't she lovely') built on Oct 20 2013 12:50:05\nWriting library : libebml v1.3.0 + libmatroska v1.4.1\n\n\nVideo\nID : 1\nFormat : AVC\nFormat/Info : Advanced Video Codec\nFormat profile : &lt;a class=&quot;__cf_email__&quot; href=&quot;/cdn-cgi/l/email-protection&quot; data-cfemail=&quot;b8f0d1dfd0f8f48a9689&quot;&gt;[email&amp;#160;protected]&lt;/a&gt;&lt;script cf-hash='f9e31' type=&quot;text/javascript&quot;&gt;\n/* &lt;![CDATA[ */!function(){try{var t=&quot;currentScript&quot;in document?document.currentScript:function(){for(var t=document.getElementsByTagName(&quot;script&quot;),e=t.length;e--;)if(t[e].getAttribute(&quot;cf-hash&quot;))return t[e]}();if(t&amp;&amp;t.previousSibling){var e,r,n,i,c=t.previousSibling,a=c.getAttribute(&quot;data-cfemail&quot;);if(a){for(e=&quot;&quot;,r=parseInt(a.substr(0,2),16),n=2;a.length-n;n+=2)i=parseInt(a.substr(n,2),16)^r,e+=String.fromCharCode(i);e=document.createTextNode(e),c.parentNode.replaceChild(e,c)}}}catch(u){}}();/* ]]&gt; */&lt;/script&gt;\nFormat settings, CABAC : Yes\nFormat settings, ReFrames : 4 frames\nCodec ID : V_MPEG4/ISO/AVC\nDuration : 2h 21mn\nBit rate : 625 Kbps\nWidth : 640 pixels\nHeight : 272 pixels\nDisplay aspect ratio : 2.35:1\nFrame rate mode : Constant\nFrame rate : 23.976 fps\nColor space : YUV\nChroma subsampling : 4:2:0\nBit depth : 8 bits\nScan type : Progressive\nBits/(Pixel*Frame) : 0.150\nStream size : 620 MiB (89%)\nTitle : Mafiaking\nLanguage : Panjabi\nDefault : Yes\nForced : No\n\n\nAudio\nID : 2\nFormat : MPEG Audio\nFormat version : Version 2\nFormat profile : Layer 3\nMode : Joint stereo\nMode extension : MS Stereo\nCodec ID : A_MPEG/L3\nCodec ID/Hint : MP3\nDuration : 2h 21mn\nBit rate mode : Constant\nBit rate : 64.0 Kbps\nChannel(s) : 2 channels\nSampling rate : 24.0 KHz\nCompression mode : Lossy\nDelay relative to video : 14ms\nStream size : 64.8 MiB (9%)\nTitle : Mafiaking\nLanguage : Panjabi\nDefault : Yes\nForced : No\n\n","torrent":{"xt":"urn:btih:6fc00c10e2f9cefd7d720c907d1286eff91f208e","amp;dn":"Punjab+1984+%282014%29+-+1CD+-+DVDSCR-Rip+-+Punjabi+-+x264+-+MP3+-+M","amp;tr":["udp%3A%2F%2Ftracker.openbittorrent.com%3A80","udp%3A%2F%2Fopen.demonii.com%3A1337","udp%3A%2F%2Ftracker.coppersurfer.tk%3A6969","udp%3A%2F%2Fexodus.desync.com%3A6969"],"infoHash":"6fc00c10e2f9cefd7d720c907d1286eff91f208e","infoHashBuffer":{"type":"Buffer","data":[111,192,12,16,226,249,206,253,125,114,12,144,125,18,134,239,249,31,32,142]},"announce":[],"urlList":[]}}